<?xml version="1.0" encoding="utf-8"?><!-- Generator: Adobe Illustrator 23.0.0, SVG Export Plug-In . SVG Version: 6.00 Build 0)  -->
<svg version="1.1" id="Layer_1" xmlns="http://www.w3.org/2000/svg" x="0px" y="0px"
    viewBox="0 0 70.25 70.25" style="enable-background:new 0 0 70.25 70.25;" xml:space="preserve">
<style type="text/css">
	.st0{fill:#FFFFFF;}
	.st1{fill:#FFFFFF;}
</style>

    <circle style="fill:#343353" cx="35.12" cy="35.12" r="35" />
    <g>
	<path style="fill:#FFFFFF" d="M21.2,28.21c0-0.43,0.04-0.77,0.11-1.01c0.08-0.24,0.18-0.46,0.3-0.65h1.33c-0.1,0.38-0.14,0.89-0.14,1.51
		v2.81h-1.6V28.21z M25.8,25.91c0-0.52-0.13-0.91-0.38-1.15c-0.25-0.24-0.65-0.37-1.18-0.37h-3.02v-1.3h3.13c1,0,1.77,0.25,2.3,0.74
		c0.53,0.49,0.8,1.21,0.8,2.14v4.89H25.8V25.91z" />
        <path style="fill:#FFFFFF" d="M32.82,25.6c0-0.38-0.11-0.67-0.33-0.89c-0.22-0.21-0.53-0.32-0.92-0.32H29.1v-1.3h2.56
		c0.58,0,1.09,0.1,1.51,0.31s0.75,0.51,0.97,0.9c0.22,0.39,0.34,0.86,0.34,1.4v5.17h-1.66V25.6z" />
        <path style="fill:#FFFFFF"
            d="M36.77,24.46l-0.5-0.1V23.1h4.07l-0.01,1.3H38.4l1.03,6.47h-1.71L36.77,24.46z" />
        <path style="fill:#FFFFFF" d="M42.32,23.1h3.17c2.04,0,3.07,0.98,3.09,2.96v4.82h-1.65l-0.01-4.94c0-0.53-0.12-0.92-0.34-1.16
		c-0.23-0.25-0.59-0.37-1.08-0.37h-1.52v6.47h-1.66L42.32,23.1z" />
        <path style="fill:#FFFFFF" d="M11.81,44.28c0-0.43,0.04-0.77,0.11-1.01c0.08-0.24,0.18-0.46,0.3-0.65h1.33c-0.1,0.38-0.14,0.89-0.14,1.51
		v2.81h-1.6V44.28z M16.4,41.98c0-0.52-0.13-0.91-0.38-1.15c-0.25-0.24-0.65-0.37-1.18-0.37h-3.02v-1.3h3.13c1,0,1.77,0.25,2.3,0.74
		c0.53,0.49,0.8,1.21,0.8,2.14v4.89H16.4V41.98z" />
        <path style="fill:#FFFFFF" d="M20.99,42.3c0.04-0.35,0.14-0.69,0.28-1c0.15-0.32,0.32-0.56,0.51-0.74c0.03-0.03,0.07-0.06,0.11-0.08
		l-0.01-0.03c-0.18,0.03-0.4,0.08-0.67,0.15c-0.27,0.07-0.5,0.14-0.7,0.22l-0.37-1.22c0.51-0.18,1.09-0.33,1.74-0.44
		s1.26-0.17,1.83-0.17c1.12,0,1.97,0.29,2.56,0.87c0.59,0.58,0.88,1.44,0.89,2.57v4.51h-3.31v-1.3h1.65v-3.42
		c0-0.6-0.13-1.06-0.39-1.38s-0.63-0.48-1.1-0.48c-0.39,0-0.71,0.15-0.95,0.46s-0.4,0.73-0.46,1.29l-0.52,4.84h-1.64L20.99,42.3z" />
        <path style="fill:#FFFFFF" d="M30.16,40.46h-1.31v-1.3h2.97v4.39h-1.66V40.46z" />
        <path style="fill:#FFFFFF" d="M35.97,45.3c0.4,0.17,0.82,0.3,1.26,0.4s0.86,0.14,1.25,0.14c0.62,0,1.17-0.09,1.65-0.26
		c0.48-0.18,0.85-0.45,1.12-0.81c0.27-0.36,0.41-0.82,0.41-1.37v-4.23h1.6v4.41c0,0.78-0.21,1.43-0.63,1.97
		c-0.42,0.54-0.98,0.94-1.69,1.21c-0.71,0.27-1.51,0.4-2.39,0.4c-0.68,0-1.39-0.08-2.12-0.25s-1.42-0.4-2.07-0.72v-7.03h1.6V45.3z
		 M37.89,43.91c0.07-0.3,0.1-0.64,0.1-1.02v-3.72h1.61v3.39c0,0.44-0.05,0.85-0.16,1.21c-0.11,0.36-0.26,0.65-0.46,0.87l-1.36-0.03
		C37.73,44.44,37.82,44.21,37.89,43.91z" />
        <path style="fill:#FFFFFF" d="M48.83,41.67c0-0.38-0.11-0.67-0.33-0.89c-0.22-0.21-0.53-0.32-0.92-0.32h-2.47v-1.3h2.56
		c0.58,0,1.09,0.1,1.51,0.31s0.75,0.51,0.97,0.9c0.22,0.39,0.34,0.86,0.34,1.4v5.17h-1.66V41.67z" />
        <path style="fill:#FFFFFF"
            d="M58.44,40.22l-2.7,6.72h-1.77l2.67-6.47H52.3V36.9h1.66v2.27h4.49V40.22z" />
</g>
</svg>
