<svg version="1.1" id="Layer_1" xmlns="http://www.w3.org/2000/svg" x="0" y="0" viewBox="0 0 70.25 70.25" style="enable-background:new 0 0 70.25 70.25" xml:space="preserve"><style>.st1{fill:#fff}</style><circle cx="35.12" cy="35.12" r="35" style="fill:#343353"/><path class="st1" d="M21.2 28.21c0-.43.04-.77.11-1.01.08-.24.18-.46.3-.65h1.33c-.1.38-.14.89-.14 1.51v2.81h-1.6v-2.66zm4.6-2.3c0-.52-.13-.91-.38-1.15-.25-.24-.65-.37-1.18-.37h-3.02v-1.3h3.13c1 0 1.77.25 2.3.74.53.49.8 1.21.8 2.14v4.89H25.8v-4.95zM32.82 25.6c0-.38-.11-.67-.33-.89-.22-.21-.53-.32-.92-.32H29.1v-1.3h2.56c.58 0 1.09.1 1.51.31s.75.51.97.9c.22.39.34.86.34 1.4v5.17h-1.66V25.6zM36.77 24.46l-.5-.1V23.1h4.07l-.01 1.3H38.4l1.03 6.47h-1.71l-.95-6.41zM42.32 23.1h3.17c2.04 0 3.07.98 3.09 2.96v4.82h-1.65l-.01-4.94c0-.53-.12-.92-.34-1.16-.23-.25-.59-.37-1.08-.37h-1.52v6.47h-1.66V23.1zM11.81 44.28c0-.43.04-.77.11-1.01.08-.24.18-.46.3-.65h1.33c-.1.38-.14.89-.14 1.51v2.81h-1.6v-2.66zm4.59-2.3c0-.52-.13-.91-.38-1.15-.25-.24-.65-.37-1.18-.37h-3.02v-1.3h3.13c1 0 1.77.25 2.3.74.53.49.8 1.21.8 2.14v4.89H16.4v-4.95zM20.99 42.3c.04-.35.14-.69.28-1 .15-.32.32-.56.51-.74.03-.03.07-.06.11-.08l-.01-.03c-.18.03-.4.08-.67.15-.27.07-.5.14-.7.22l-.37-1.22c.51-.18 1.09-.33 1.74-.44s1.26-.17 1.83-.17c1.12 0 1.97.29 2.56.87.59.58.88 1.44.89 2.57v4.51h-3.31v-1.3h1.65v-3.42c0-.6-.13-1.06-.39-1.38s-.63-.48-1.1-.48c-.39 0-.71.15-.95.46s-.4.73-.46 1.29l-.52 4.84h-1.64l.55-4.65zM30.16 40.46h-1.31v-1.3h2.97v4.39h-1.66v-3.09zM35.97 45.3c.4.17.82.3 1.26.4s.86.14 1.25.14c.62 0 1.17-.09 1.65-.26.48-.18.85-.45 1.12-.81.27-.36.41-.82.41-1.37v-4.23h1.6v4.41c0 .78-.21 1.43-.63 1.97-.42.54-.98.94-1.69 1.21s-1.51.4-2.39.4c-.68 0-1.39-.08-2.12-.25s-1.42-.4-2.07-.72v-7.03h1.6v6.14zm1.92-1.39c.07-.3.1-.64.1-1.02v-3.72h1.61v3.39c0 .44-.05.85-.16 1.21s-.26.65-.46.87l-1.36-.03c.11-.17.2-.4.27-.7zM48.83 41.67c0-.38-.11-.67-.33-.89-.22-.21-.53-.32-.92-.32h-2.47v-1.3h2.56c.58 0 1.09.1 1.51.31s.75.51.97.9c.22.39.34.86.34 1.4v5.17h-1.66v-5.27zM58.44 40.22l-2.7 6.72h-1.77l2.67-6.47H52.3V36.9h1.66v2.27h4.49v1.05z"/></svg>