<?xml version="1.0" encoding="utf-8"?>
<!-- Generator: Adobe Illustrator 25.2.0, SVG Export Plug-In . SVG Version: 6.00 Build 0)  -->
<svg version="1.1" xmlns="http://www.w3.org/2000/svg" xmlns:xlink="http://www.w3.org/1999/xlink" x="0px" y="0px"
	 viewBox="0 0 1000 1000" style="enable-background:new 0 0 1000 1000;" xml:space="preserve">
<style type="text/css">
	.st0{fill:#E86B60;}
	.st1{fill:#FFFFFF;}
	.st2{fill-rule:evenodd;clip-rule:evenodd;fill:#E86D5E;}
</style>
<g id="Layer_1">
	<path class="st0" d="M703.84,369.96c0-113.17-91.5-204.92-204.38-204.92s-204.38,91.75-204.38,204.92
		c0,30.39,6.6,59.22,18.44,85.16c13.45,34.47,81.76,204.14,186.1,370.01v0.02c0,0,0-0.01,0.01-0.01c0,0.01,0.01,0.01,0.01,0.02
		v-0.04C616.5,639.35,688.18,448.78,688.18,448.78l-0.02,0.01C698.26,424.52,703.84,397.9,703.84,369.96z"/>
</g>
<g id="Layer_4">
	<circle class="st1" cx="498.64" cy="370.88" r="178.2"/>
</g>
<g id="Layer_3">
	<g>
		<g>
			<path class="st2" d="M504.23,320.71c3.56-1.63,2.82,0.16,0.98,1.47c-1.84,1.3-5.19,4.16-3.92,3.42c1.27-0.73,4.37-1.39,4.9-0.49
				c0.53,0.9-2.45,1.47-2.45,1.47c-1.34,0.52-2.75,1.53-3.46,2.08c-0.12,0.66-0.72,4.37-0.47,12.11c0.28,8.59,1.96,12.23,1.96,12.23
				c0.64,0.21,0.86-4,1.96-3.91c1.1,0.09,0.95,1.9-0.49,3.42c-1.44,1.53-1.72,2.23,0,1.96c1.72-0.28,2.57-1.5,3.92-1.47
				c1.35,0.03-0.4,1.22-1.96,2.45c-1.56,1.22-0.64,1.22,2.45,0.49s10.64-1.86,17.16-2.45s21.55-1.1,32.37-0.98
				c10.82,0.12,18.97-0.21,29.91,0.98c10.94,1.19,24.18,3.21,25.01,2.93c0.64-0.21-0.87-2.42-1.6-3.42c0.02,0.09-0.37-0.5-0.37-0.5
				s0.15,0.2,0.37,0.5c-0.01-0.04-0.09-0.21-0.31-0.6c-0.74-1.31,1.06-1.54,2.4,0.1c1.56,1.93,1.96,3.24,2.45,3.42
				s1.32-2.14,2.45-6.36c1.13-4.22,1.26-12.84,1.96-16.14c0.7-3.3,1.72-5.96,0.98-6.36c-0.74-0.4-1.04,0.46-1.96,0.98
				c-0.92,0.52-2.79-0.06-3.43-0.98c-0.64-0.92-0.28-1.62,1.47-0.98c1.75,0.64,2.24,0.52,2.45,0c0.21-0.52-2.05-5.01-2.94-5.87
				c-0.89-0.86-0.37-1.86,0.49-1.96c0.86-0.09,3.8,3.58,3.92,5.38c0.12,1.8,0.49,1.47,0.49,1.47s0.45-3.51,2.45-9.78
				c2-6.28,1.47-9.78,1.47-9.78c-0.94-4.4-6.87-3.91-6.87-3.91l-12.75,0.49c-6.5,0.16-26.32,0.86-28.44,0.98
				c-2.12,0.12-25.5-0.16-34.33-0.49c-8.83-0.33-24.72-1.92-30.9-2.45c-6.17-0.53-11.77,4.4-11.77,4.4s-0.41,19.93-0.49,20.54
				C499.25,325.72,500.68,322.34,504.23,320.71z M499.82,329.02c0,0,0.18-0.15,0.47-0.37c0.01-0.07,0.02-0.12,0.02-0.12
				L499.82,329.02z M379.67,322.67c0,0,1.47-3.18,1.47-0.98s-0.41,2.85,0,2.45c0.41-0.41,3.68-2.69,2.94-0.98s-4.58,4.57-4.9,5.38
				c-0.33,0.82-1.23,12.88-0.98,16.14c0.25,3.26,0.49,4.48,0.98,2.93c0.49-1.55,2.04-3.42,1.96-1.47c-0.08,1.96-1.72,3.02-1.96,3.91
				c-0.25,0.9-0.33,5.05,0.49,3.42c0.82-1.63,3.92-5.54,4.9-5.38c0.98,0.16-0.41,2.36-1.47,4.4c-1.06,2.04-2.53,5.05-1.47,4.4
				c1.06-0.65,19.86-3.99,39.23-4.4c0,0,34.98,0.49,49.04,0.98c14.06,0.49,23.54,2.36,24.52,2.45c0.98,0.08,2.78-0.33,1.47-1.47
				c-1.31-1.14-2.78-2.28-1.47-2.45c1.31-0.16,1.8,1.55,2.45,0.98c0.65-0.57,0.41-3.26,0.49-7.34c0.08-4.08,0.25-15.41-0.49-15.65
				c-0.74-0.24-1.39-0.9-3.43-0.49c-2.04,0.41-4.66-1.79-1.96-1.96c2.7-0.16,5.8,0.65,5.88-0.49c0.08-1.14-4.09-4.65-4.41-5.87
				c-0.33-1.22,0.9-1.06,1.96,0c1.06,1.06,1.47,2.45,1.47,2.45h0.49l0.49-16.63c0,0-0.08-6.77-13.24-6.85c0,0-28.93,0.65-38.25,1.47
				s-36.78,0.73-46.1,0.98c-9.32,0.24-19.62,0-19.62,0s-4.09-0.41-2.94,7.34C378.36,317.69,379.67,322.67,379.67,322.67z
				 M484.62,356.41c-10.69-1.57-31.88-1.76-65.71-1.47c-33.84,0.29-42.17,8.31-42.17,8.31l-0.49,0.49c-1.08,0.68,2.94,0,2.94,0
				s44.23,0.68,61.79,0.98c17.56,0.29,29.23,0.1,29.91,0.98c0.69,0.88-14.22,0.49-14.22,0.49h-84.35c0,0-0.59,5.87-0.49,12.72
				c0.1,6.85,12.75,5.87,12.75,5.87s40.8-1.86,60.81-1.47c20.01,0.39,50.51-0.88,51.98-1.96c1.47-1.08,0.49-12.91,0-14.67
				c-0.49-1.76-0.49-1.96-0.49-1.96s-0.59,0.98-3.43,1.47c0.06-0.06-0.17-0.04-0.43,0c0.13,0.01,0.24,0.02,0.31,0.02
				c-1.83,0.31-0.95,0.08-0.31-0.02c-1.43-0.13-5.94-0.98-5.94-0.98s7.75-0.59,10.3-1.96C499.92,361.89,495.31,357.98,484.62,356.41
				z M498.35,382.83c0,0,0.01,0.22-0.17,0.58C499.02,383.13,498.35,382.83,498.35,382.83z M425.28,384.78
				c-0.98-0.1-42.17,1.47-42.17,1.47s-5.79,0.39-10.3-1.96v0.98c0,0,4.41,2.54,18.14,2.93c13.73,0.39,86.8-0.98,86.8-0.98
				s13.63,0,17.16-1.47c2.16-0.9,2.96-1.8,3.26-2.36c-0.59,0.19-1.91,0.36-4.73,0.4C486.58,383.9,426.26,384.88,425.28,384.78z
				 M627.82,382.83c0-2.64,0.2-10.66-0.49-12.72c-0.6-1.8-0.53-1.95-0.5-1.96c-0.07,0-7.41-0.16-9.01-0.04
				c0.14,0.05-0.62,0.17-0.3,0.04c0.04-0.02,0.16-0.03,0.3-0.04c-0.07-0.02-0.4-0.03-1.28,0.04c-2.55,0.2-66.5-1.17-86.8-1.96
				c-20.3-0.78-28.44-0.98-28.44-0.98s-0.98,5.09-0.49,10.27c0.49,5.18,0.29,6.36,0.98,7.34c0.69,0.98,32.56,2.25,58.85,1.96
				c26.29-0.29,47.37,1.17,54.43,0.98C622.13,385.57,627.82,385.47,627.82,382.83z M615.56,366.2c0,0,7.45,0.2,7.36-0.49
				c-0.1-0.68-1.67-6.16-28.93-8.31c-27.27-2.15-45.71-3.13-59.83-2.45c-14.12,0.68-32.86,1.76-32.86,6.85c0,0-2.35,1.37,14.22,2.45
				C532.09,365.32,615.56,366.2,615.56,366.2z M623.89,390.65c-5.07-0.33-129.47-0.98-129.47-0.98l-110.34,0.49
				c0,0-12.1-0.82-11.77,1.47l-0.49,22.99c0,0-0.49,6.2,0.98,6.36c1.47,0.16,254.52-0.98,254.52-0.98s1.47,0,1.47-1.96
				c0-1.96,0-23.97,0-23.97S628.96,390.98,623.89,390.65z M340.44,343.7c0,0,5.39,31.47,9.81,53.31c4.41,21.85,4.9,23.97,4.9,23.97
				h13.73c0,0,0.65-45.81-1.96-60.16C364.31,346.47,356.62,341.09,340.44,343.7z M374.28,352.01c1.14-5.22,2.45-5.87,2.45-5.87
				l-0.98-10.27c0,0-0.16-5.54-7.36-4.4c-7.19,1.14-19.13,5.54-25.01,9.78c0,0,17.33-2.77,22.07,7.83c4.74,10.6,4.9,16.63,4.9,16.63
				l3.92-3.91C374.28,361.79,373.13,357.23,374.28,352.01z M357.6,430.27h9.81l0.98-7.34h-13.24L357.6,430.27z M644.49,343.21
				c-12.1,1.3-12.75,20.05-12.75,20.05L631.25,420l13.24,0.49c0,0,1.47-4.08,5.88-22.5c4.41-18.42,6.87-55.76,6.87-55.76
				S656.59,341.9,644.49,343.21z M633.7,429.29l8.34-0.49l1.96-6.36h-10.79L633.7,429.29z M621.44,336.36c0,3.26,0,20.54,0,20.54
				v2.45c0,0,4.58,4.56,5.39,5.87c0.82,1.3,0.98,0.98,0.98,0.98s-2.78-25.76,25.5-26.41c0,0-12.1-8.64-26.48-7.83
				C626.83,331.96,621.44,333.1,621.44,336.36z M505.22,385.76c1.96,2.28,38.58,2.45,49.53,2.45h62.28c5.23,0,7.85-0.98,7.85-0.98
				s-27.95-0.33-45.61-0.49L505.22,385.76z"/>
		</g>
	</g>
</g>
<g id="Layer_2">
</g>
</svg>
