<?xml version="1.0" encoding="UTF-8"?>
<svg xmlns="http://www.w3.org/2000/svg" xmlns:xlink="http://www.w3.org/1999/xlink" width="40px" height="40px" viewBox="0 0 40 40" version="1.1">
<g id="surface1">
<path style=" stroke:none;fill-rule:nonzero;fill:rgb(90.980392%,41.960784%,37.647059%);fill-opacity:1;" d="M 28.152344 14.796875 C 28.152344 10.273438 24.492188 6.601562 19.976562 6.601562 C 15.464844 6.601562 11.804688 10.273438 11.804688 14.796875 C 11.804688 16.015625 12.066406 17.167969 12.539062 18.203125 C 13.078125 19.582031 15.8125 26.371094 19.984375 33.003906 L 19.984375 33.007812 C 19.984375 33.007812 19.984375 33.003906 19.984375 33.003906 C 19.984375 33.007812 19.984375 33.007812 19.984375 33.007812 L 19.984375 33.003906 C 24.660156 25.574219 27.527344 17.953125 27.527344 17.953125 C 27.929688 16.980469 28.152344 15.914062 28.152344 14.796875 Z M 28.152344 14.796875 "/>
<path style=" stroke:none;fill-rule:nonzero;fill:rgb(100%,100%,100%);fill-opacity:1;" d="M 27.074219 14.835938 C 27.074219 18.773438 23.882812 21.964844 19.945312 21.964844 C 16.007812 21.964844 12.816406 18.773438 12.816406 14.835938 C 12.816406 10.898438 16.007812 7.707031 19.945312 7.707031 C 23.882812 7.707031 27.074219 10.898438 27.074219 14.835938 Z M 27.074219 14.835938 "/>
<path style=" stroke:none;fill-rule:evenodd;fill:rgb(90.980392%,42.745098%,36.862745%);fill-opacity:1;" d="M 20.167969 12.828125 C 20.3125 12.761719 20.28125 12.835938 20.207031 12.886719 C 20.136719 12.9375 20 13.054688 20.050781 13.023438 C 20.101562 12.996094 20.226562 12.96875 20.246094 13.003906 C 20.269531 13.039062 20.148438 13.0625 20.148438 13.0625 C 20.097656 13.085938 20.039062 13.125 20.011719 13.144531 C 20.007812 13.171875 19.980469 13.320312 19.992188 13.628906 C 20.003906 13.972656 20.070312 14.121094 20.070312 14.121094 C 20.097656 14.128906 20.105469 13.960938 20.148438 13.964844 C 20.191406 13.96875 20.1875 14.039062 20.128906 14.101562 C 20.070312 14.160156 20.0625 14.191406 20.128906 14.179688 C 20.199219 14.167969 20.230469 14.117188 20.285156 14.121094 C 20.339844 14.121094 20.269531 14.167969 20.207031 14.21875 C 20.144531 14.265625 20.183594 14.265625 20.304688 14.238281 C 20.429688 14.207031 20.730469 14.164062 20.992188 14.140625 C 21.253906 14.117188 21.855469 14.09375 22.289062 14.101562 C 22.71875 14.105469 23.046875 14.09375 23.484375 14.140625 C 23.921875 14.1875 24.449219 14.269531 24.484375 14.257812 C 24.507812 14.25 24.449219 14.160156 24.421875 14.121094 C 24.421875 14.125 24.40625 14.101562 24.40625 14.101562 C 24.40625 14.101562 24.410156 14.109375 24.421875 14.121094 C 24.417969 14.117188 24.417969 14.113281 24.40625 14.097656 C 24.378906 14.042969 24.449219 14.035156 24.503906 14.101562 C 24.566406 14.175781 24.582031 14.230469 24.601562 14.238281 C 24.621094 14.242188 24.65625 14.152344 24.699219 13.980469 C 24.746094 13.8125 24.75 13.46875 24.777344 13.335938 C 24.804688 13.203125 24.847656 13.097656 24.816406 13.082031 C 24.789062 13.066406 24.777344 13.101562 24.738281 13.121094 C 24.703125 13.140625 24.628906 13.121094 24.601562 13.082031 C 24.574219 13.046875 24.589844 13.019531 24.660156 13.042969 C 24.730469 13.070312 24.75 13.0625 24.757812 13.042969 C 24.765625 13.023438 24.675781 12.84375 24.640625 12.808594 C 24.605469 12.773438 24.625 12.734375 24.660156 12.730469 C 24.695312 12.726562 24.8125 12.875 24.816406 12.945312 C 24.820312 13.015625 24.835938 13.003906 24.835938 13.003906 C 24.835938 13.003906 24.855469 12.863281 24.933594 12.613281 C 25.015625 12.363281 24.992188 12.222656 24.992188 12.222656 C 24.957031 12.046875 24.71875 12.066406 24.71875 12.066406 L 24.207031 12.085938 C 23.949219 12.089844 23.15625 12.121094 23.070312 12.125 C 22.988281 12.128906 22.050781 12.117188 21.699219 12.105469 C 21.34375 12.089844 20.710938 12.027344 20.460938 12.007812 C 20.214844 11.984375 19.992188 12.183594 19.992188 12.183594 C 19.992188 12.183594 19.976562 12.980469 19.972656 13.003906 C 19.96875 13.027344 20.027344 12.894531 20.167969 12.828125 Z M 19.992188 13.160156 C 19.992188 13.160156 20 13.15625 20.011719 13.144531 C 20.011719 13.144531 20.011719 13.140625 20.011719 13.140625 Z M 15.1875 12.90625 C 15.1875 12.90625 15.246094 12.78125 15.246094 12.867188 C 15.246094 12.957031 15.230469 12.980469 15.246094 12.964844 C 15.261719 12.949219 15.394531 12.859375 15.363281 12.925781 C 15.332031 12.996094 15.179688 13.109375 15.167969 13.140625 C 15.152344 13.175781 15.117188 13.65625 15.128906 13.789062 C 15.136719 13.917969 15.148438 13.964844 15.167969 13.90625 C 15.1875 13.84375 15.25 13.769531 15.246094 13.84375 C 15.242188 13.925781 15.175781 13.964844 15.167969 14.003906 C 15.15625 14.039062 15.152344 14.203125 15.1875 14.140625 C 15.21875 14.074219 15.34375 13.917969 15.382812 13.921875 C 15.421875 13.929688 15.367188 14.019531 15.324219 14.097656 C 15.28125 14.179688 15.222656 14.300781 15.265625 14.277344 C 15.308594 14.25 16.058594 14.117188 16.835938 14.097656 C 16.835938 14.097656 18.234375 14.121094 18.796875 14.140625 C 19.359375 14.160156 19.738281 14.234375 19.777344 14.238281 C 19.816406 14.238281 19.886719 14.222656 19.835938 14.179688 C 19.78125 14.132812 19.722656 14.085938 19.777344 14.078125 C 19.828125 14.074219 19.847656 14.140625 19.875 14.121094 C 19.902344 14.097656 19.890625 13.988281 19.894531 13.824219 C 19.898438 13.664062 19.90625 13.210938 19.875 13.199219 C 19.84375 13.191406 19.820312 13.164062 19.738281 13.179688 C 19.65625 13.195312 19.550781 13.109375 19.660156 13.101562 C 19.765625 13.09375 19.890625 13.128906 19.894531 13.082031 C 19.898438 13.035156 19.730469 12.894531 19.71875 12.847656 C 19.703125 12.796875 19.753906 12.804688 19.796875 12.847656 C 19.839844 12.890625 19.855469 12.945312 19.855469 12.945312 L 19.875 12.945312 L 19.894531 12.28125 C 19.894531 12.28125 19.890625 12.007812 19.363281 12.007812 C 19.363281 12.007812 18.207031 12.03125 17.835938 12.066406 C 17.460938 12.097656 16.363281 12.09375 15.992188 12.105469 C 15.617188 12.113281 15.207031 12.105469 15.207031 12.105469 C 15.207031 12.105469 15.042969 12.085938 15.089844 12.398438 C 15.132812 12.707031 15.1875 12.90625 15.1875 12.90625 Z M 19.386719 14.257812 C 18.957031 14.195312 18.109375 14.1875 16.757812 14.199219 C 15.402344 14.210938 15.070312 14.53125 15.070312 14.53125 L 15.050781 14.550781 C 15.007812 14.578125 15.167969 14.550781 15.167969 14.550781 C 15.167969 14.550781 16.9375 14.578125 17.640625 14.589844 C 18.339844 14.601562 18.808594 14.59375 18.835938 14.628906 C 18.863281 14.664062 18.265625 14.648438 18.265625 14.648438 L 14.894531 14.648438 C 14.894531 14.648438 14.871094 14.882812 14.875 15.15625 C 14.878906 15.429688 15.382812 15.390625 15.382812 15.390625 C 15.382812 15.390625 17.015625 15.316406 17.816406 15.332031 C 18.617188 15.347656 19.835938 15.296875 19.894531 15.253906 C 19.953125 15.210938 19.914062 14.738281 19.894531 14.667969 C 19.875 14.597656 19.875 14.589844 19.875 14.589844 C 19.875 14.589844 19.851562 14.628906 19.738281 14.648438 C 19.742188 14.644531 19.730469 14.644531 19.722656 14.648438 C 19.726562 14.648438 19.730469 14.648438 19.734375 14.648438 C 19.660156 14.660156 19.695312 14.652344 19.722656 14.648438 C 19.664062 14.640625 19.484375 14.609375 19.484375 14.609375 C 19.484375 14.609375 19.792969 14.585938 19.894531 14.53125 C 19.996094 14.476562 19.8125 14.320312 19.386719 14.257812 Z M 19.933594 15.3125 C 19.933594 15.3125 19.933594 15.320312 19.925781 15.335938 C 19.960938 15.324219 19.933594 15.3125 19.933594 15.3125 Z M 17.011719 15.390625 C 16.972656 15.386719 15.324219 15.449219 15.324219 15.449219 C 15.324219 15.449219 15.09375 15.464844 14.914062 15.371094 L 14.914062 15.410156 C 14.914062 15.410156 15.089844 15.511719 15.636719 15.527344 C 16.1875 15.542969 19.109375 15.488281 19.109375 15.488281 C 19.109375 15.488281 19.65625 15.488281 19.796875 15.429688 C 19.882812 15.394531 19.914062 15.359375 19.925781 15.335938 C 19.902344 15.34375 19.851562 15.351562 19.738281 15.351562 C 19.464844 15.355469 17.050781 15.394531 17.011719 15.390625 Z M 25.113281 15.3125 C 25.113281 15.207031 25.121094 14.886719 25.09375 14.804688 C 25.070312 14.730469 25.070312 14.726562 25.074219 14.726562 C 25.070312 14.726562 24.777344 14.71875 24.710938 14.722656 C 24.71875 14.726562 24.6875 14.730469 24.699219 14.726562 C 24.703125 14.726562 24.707031 14.726562 24.710938 14.722656 C 24.710938 14.722656 24.695312 14.722656 24.660156 14.726562 C 24.558594 14.734375 22 14.679688 21.191406 14.648438 C 20.378906 14.617188 20.050781 14.609375 20.050781 14.609375 C 20.050781 14.609375 20.011719 14.8125 20.03125 15.019531 C 20.050781 15.226562 20.042969 15.273438 20.070312 15.3125 C 20.097656 15.351562 21.375 15.402344 22.425781 15.390625 C 23.476562 15.378906 24.320312 15.4375 24.601562 15.429688 C 24.886719 15.421875 25.113281 15.417969 25.113281 15.3125 Z M 24.621094 14.648438 C 24.621094 14.648438 24.921875 14.65625 24.917969 14.628906 C 24.914062 14.601562 24.851562 14.382812 23.757812 14.296875 C 22.667969 14.210938 21.929688 14.171875 21.367188 14.199219 C 20.800781 14.226562 20.050781 14.269531 20.050781 14.472656 C 20.050781 14.472656 19.957031 14.527344 20.621094 14.570312 C 21.285156 14.613281 24.621094 14.648438 24.621094 14.648438 Z M 24.957031 15.625 C 24.753906 15.613281 19.777344 15.585938 19.777344 15.585938 L 15.363281 15.605469 C 15.363281 15.605469 14.878906 15.574219 14.890625 15.664062 L 14.871094 16.585938 C 14.871094 16.585938 14.851562 16.832031 14.910156 16.839844 C 14.972656 16.84375 25.09375 16.800781 25.09375 16.800781 C 25.09375 16.800781 25.152344 16.800781 25.152344 16.722656 C 25.152344 16.644531 25.152344 15.761719 25.152344 15.761719 C 25.152344 15.761719 25.160156 15.640625 24.957031 15.625 Z M 13.617188 13.746094 C 13.617188 13.746094 13.832031 15.007812 14.011719 15.878906 C 14.1875 16.753906 14.207031 16.839844 14.207031 16.839844 L 14.753906 16.839844 C 14.753906 16.839844 14.78125 15.007812 14.675781 14.433594 C 14.574219 13.859375 14.265625 13.644531 13.617188 13.746094 Z M 14.972656 14.082031 C 15.015625 13.871094 15.070312 13.84375 15.070312 13.84375 L 15.03125 13.433594 C 15.03125 13.433594 15.023438 13.214844 14.734375 13.257812 C 14.449219 13.304688 13.96875 13.480469 13.734375 13.648438 C 13.734375 13.648438 14.429688 13.539062 14.617188 13.964844 C 14.808594 14.386719 14.8125 14.628906 14.8125 14.628906 L 14.972656 14.472656 C 14.972656 14.472656 14.925781 14.289062 14.972656 14.082031 Z M 14.304688 17.210938 L 14.695312 17.210938 L 14.734375 16.917969 L 14.207031 16.917969 Z M 25.78125 13.726562 C 25.296875 13.78125 25.269531 14.53125 25.269531 14.53125 L 25.25 16.800781 L 25.78125 16.820312 C 25.78125 16.820312 25.839844 16.65625 26.015625 15.917969 C 26.191406 15.183594 26.289062 13.6875 26.289062 13.6875 C 26.289062 13.6875 26.261719 13.675781 25.78125 13.726562 Z M 25.347656 17.171875 L 25.679688 17.152344 L 25.761719 16.898438 L 25.328125 16.898438 Z M 24.859375 13.453125 C 24.859375 13.585938 24.859375 14.277344 24.859375 14.277344 L 24.859375 14.375 C 24.859375 14.375 25.039062 14.554688 25.074219 14.609375 C 25.105469 14.660156 25.113281 14.648438 25.113281 14.648438 C 25.113281 14.648438 25 13.617188 26.132812 13.589844 C 26.132812 13.589844 25.648438 13.246094 25.074219 13.277344 C 25.074219 13.277344 24.859375 13.324219 24.859375 13.453125 Z M 20.207031 15.429688 C 20.289062 15.523438 21.753906 15.527344 22.191406 15.527344 L 24.679688 15.527344 C 24.890625 15.527344 24.996094 15.488281 24.996094 15.488281 C 24.996094 15.488281 23.878906 15.476562 23.171875 15.46875 Z M 20.207031 15.429688 "/>
</g>
</svg>
