<svg xmlns="http://www.w3.org/2000/svg" width="31" height="32" viewBox="0 0 31 32">
  <g id="Share" transform="translate(0.262 0.282)">
    <ellipse id="Ellipse_116" data-name="Ellipse 116" cx="15.5" cy="16" rx="15.5" ry="16" transform="translate(-0.262 -0.282)" fill="#fff"/>
    <g id="Layer_2" data-name="Layer 2" transform="translate(3.493 4.366)">
      <g id="share-2" data-name="share" transform="translate(0 0)">
        <rect id="Rectangle_305" data-name="Rectangle 305" width="22" height="22" transform="translate(0.245 0.352)" opacity="0"/>
        <path id="Path_1121" data-name="Path 1121" d="M16.855,14.141a2.785,2.785,0,0,0-1.95.8L7.57,11.671v-.622l7.335-3.277a2.785,2.785,0,1,0-.836-1.987V6.1L6.735,9.369a2.785,2.785,0,1,0,0,3.974L14.07,16.62v.306a2.785,2.785,0,1,0,2.785-2.785Zm0-9.284a.928.928,0,1,1-.928.928A.928.928,0,0,1,16.855,4.857ZM4.785,12.284a.928.928,0,1,1,.928-.928A.928.928,0,0,1,4.785,12.284Zm12.07,5.571a.928.928,0,1,1,.928-.928A.928.928,0,0,1,16.855,17.855Z" transform="translate(0.378 -0.004)"/>
      </g>
    </g>
  </g>
</svg>
